<?xml version="1.0" standalone="no"?>
<!DOCTYPE svg PUBLIC "-//W3C//DTD SVG 20010904//EN"
 "http://www.w3.org/TR/2001/REC-SVG-20010904/DTD/svg10.dtd">
<svg version="1.0" xmlns="http://www.w3.org/2000/svg"
 width="2150.000000pt" height="2150.000000pt" viewBox="0 0 2150.000000 2150.000000"
 preserveAspectRatio="xMidYMid meet">
<metadata>
Created by potrace 1.16, written by Peter Selinger 2001-2019
</metadata>
<g transform="translate(0.000000,2150.000000) scale(0.100000,-0.100000)"
fill="#000000" stroke="none">
<path d="M500 19250 l0 -1750 1750 0 1750 0 0 1750 0 1750 -1750 0 -1750 0 0
-1750z m3000 0 l0 -1250 -1250 0 -1250 0 0 1250 0 1250 1250 0 1250 0 0 -1250z"/>
<path d="M1500 19250 l0 -750 750 0 750 0 0 750 0 750 -750 0 -750 0 0 -750z"/>
<path d="M4500 20500 l0 -500 250 0 250 0 0 -250 0 -250 -250 0 -250 0 0
-1000 0 -1000 250 0 250 0 0 -250 0 -250 500 0 500 0 0 -250 0 -250 -250 0
-250 0 0 -500 0 -500 250 0 250 0 0 500 0 500 250 0 250 0 0 -250 0 -250 250
0 250 0 0 -500 0 -500 -250 0 -250 0 0 -250 0 -250 -500 0 -500 0 0 250 0 250
-250 0 -250 0 0 -250 0 -250 -500 0 -500 0 0 250 0 250 250 0 250 0 0 250 0
250 250 0 250 0 0 250 0 250 -250 0 -250 0 0 250 0 250 -250 0 -250 0 0 250 0
250 -250 0 -250 0 0 -250 0 -250 -250 0 -250 0 0 -250 0 -250 -250 0 -250 0 0
500 0 500 -250 0 -250 0 0 -250 0 -250 -500 0 -500 0 0 -250 0 -250 -250 0
-250 0 0 -250 0 -250 750 0 750 0 0 -250 0 -250 -500 0 -500 0 0 -250 0 -250
-250 0 -250 0 0 -250 0 -250 250 0 250 0 0 -250 0 -250 -250 0 -250 0 0 -500
0 -500 250 0 250 0 0 -250 0 -250 -250 0 -250 0 0 -250 0 -250 500 0 500 0 0
-750 0 -750 250 0 250 0 0 -250 0 -250 -500 0 -500 0 0 750 0 750 -250 0 -250
0 0 -750 0 -750 250 0 250 0 0 -250 0 -250 -250 0 -250 0 0 -250 0 -250 250 0
250 0 0 -250 0 -250 -250 0 -250 0 0 -250 0 -250 250 0 250 0 0 -750 0 -750
-250 0 -250 0 0 -250 0 -250 250 0 250 0 0 250 0 250 250 0 250 0 0 750 0 750
750 0 750 0 0 250 0 250 250 0 250 0 0 -250 0 -250 250 0 250 0 0 -250 0 -250
-250 0 -250 0 0 -250 0 -250 250 0 250 0 0 250 0 250 250 0 250 0 0 -250 0
-250 500 0 500 0 0 -250 0 -250 -250 0 -250 0 0 -250 0 -250 -250 0 -250 0 0
-250 0 -250 -500 0 -500 0 0 250 0 250 250 0 250 0 0 250 0 250 -250 0 -250 0
0 -250 0 -250 -1000 0 -1000 0 0 -500 0 -500 250 0 250 0 0 250 0 250 250 0
250 0 0 -250 0 -250 250 0 250 0 0 250 0 250 250 0 250 0 0 -250 0 -250 500 0
500 0 0 -250 0 -250 1000 0 1000 0 0 -250 0 -250 500 0 500 0 0 -500 0 -500
250 0 250 0 0 -250 0 -250 250 0 250 0 0 -250 0 -250 -250 0 -250 0 0 -250 0
-250 250 0 250 0 0 -250 0 -250 250 0 250 0 0 250 0 250 250 0 250 0 0 500 0
500 250 0 250 0 0 -250 0 -250 250 0 250 0 0 -250 0 -250 -250 0 -250 0 0
-250 0 -250 250 0 250 0 0 250 0 250 250 0 250 0 0 250 0 250 250 0 250 0 0
250 0 250 -250 0 -250 0 0 250 0 250 500 0 500 0 0 -250 0 -250 250 0 250 0 0
-250 0 -250 -250 0 -250 0 0 -500 0 -500 1250 0 1250 0 0 250 0 250 250 0 250
0 0 -250 0 -250 250 0 250 0 0 750 0 750 -500 0 -500 0 0 -500 0 -500 -250 0
-250 0 0 500 0 500 -250 0 -250 0 0 250 0 250 250 0 250 0 0 500 0 500 -250 0
-250 0 0 500 0 500 250 0 250 0 0 250 0 250 250 0 250 0 0 -250 0 -250 250 0
250 0 0 250 0 250 500 0 500 0 0 -250 0 -250 -250 0 -250 0 0 -250 0 -250
-250 0 -250 0 0 -500 0 -500 250 0 250 0 0 500 0 500 500 0 500 0 0 -750 0
-750 -250 0 -250 0 0 -500 0 -500 250 0 250 0 0 -500 0 -500 500 0 500 0 0
250 0 250 250 0 250 0 0 -250 0 -250 1250 0 1250 0 0 500 0 500 250 0 250 0 0
250 0 250 -250 0 -250 0 0 250 0 250 250 0 250 0 0 500 0 500 -250 0 -250 0 0
250 0 250 250 0 250 0 0 250 0 250 -250 0 -250 0 0 250 0 250 -500 0 -500 0 0
250 0 250 750 0 750 0 0 500 0 500 -250 0 -250 0 0 500 0 500 250 0 250 0 0
250 0 250 -250 0 -250 0 0 500 0 500 250 0 250 0 0 250 0 250 -250 0 -250 0 0
250 0 250 250 0 250 0 0 250 0 250 -500 0 -500 0 0 250 0 250 -250 0 -250 0 0
250 0 250 500 0 500 0 0 -250 0 -250 250 0 250 0 0 750 0 750 -250 0 -250 0 0
250 0 250 -250 0 -250 0 0 -250 0 -250 -250 0 -250 0 0 -250 0 -250 -500 0
-500 0 0 500 0 500 -250 0 -250 0 0 750 0 750 250 0 250 0 0 250 0 250 -250 0
-250 0 0 750 0 750 500 0 500 0 0 -250 0 -250 -250 0 -250 0 0 -250 0 -250
500 0 500 0 0 -250 0 -250 -250 0 -250 0 0 -500 0 -500 -250 0 -250 0 0 -250
0 -250 250 0 250 0 0 250 0 250 250 0 250 0 0 -250 0 -250 750 0 750 0 0 250
0 250 -500 0 -500 0 0 250 0 250 250 0 250 0 0 250 0 250 -250 0 -250 0 0 250
0 250 250 0 250 0 0 250 0 250 250 0 250 0 0 500 0 500 -500 0 -500 0 0 -250
0 -250 -250 0 -250 0 0 250 0 250 -750 0 -750 0 0 -250 0 -250 -750 0 -750 0
0 250 0 250 250 0 250 0 0 750 0 750 -500 0 -500 0 0 250 0 250 250 0 250 0 0
500 0 500 250 0 250 0 0 500 0 500 -1000 0 -1000 0 0 -250 0 -250 -250 0 -250
0 0 250 0 250 -250 0 -250 0 0 -500 0 -500 -250 0 -250 0 0 -250 0 -250 -250
0 -250 0 0 250 0 250 -250 0 -250 0 0 -250 0 -250 -250 0 -250 0 0 -250 0
-250 -250 0 -250 0 0 250 0 250 -500 0 -500 0 0 250 0 250 250 0 250 0 0 500
0 500 -750 0 -750 0 0 -750 0 -750 -500 0 -500 0 0 250 0 250 -1000 0 -1000 0
0 250 0 250 250 0 250 0 0 250 0 250 -1250 0 -1250 0 0 -500z m6000 -250 l0
-250 -250 0 -250 0 0 250 0 250 250 0 250 0 0 -250z m5000 -250 l0 -500 -250
0 -250 0 0 -250 0 -250 250 0 250 0 0 -250 0 -250 250 0 250 0 0 -250 0 -250
250 0 250 0 0 -250 0 -250 -250 0 -250 0 0 250 0 250 -250 0 -250 0 0 -250 0
-250 -250 0 -250 0 0 500 0 500 -250 0 -250 0 0 250 0 250 -250 0 -250 0 0
-500 0 -500 250 0 250 0 0 -500 0 -500 750 0 750 0 0 -250 0 -250 250 0 250 0
0 -250 0 -250 250 0 250 0 0 -1000 0 -1000 250 0 250 0 0 -500 0 -500 250 0
250 0 0 -250 0 -250 -250 0 -250 0 0 -500 0 -500 250 0 250 0 0 250 0 250 250
0 250 0 0 -250 0 -250 250 0 250 0 0 -250 0 -250 -250 0 -250 0 0 -250 0 -250
500 0 500 0 0 -250 0 -250 -500 0 -500 0 0 250 0 250 -250 0 -250 0 0 250 0
250 -500 0 -500 0 0 -500 0 -500 250 0 250 0 0 -250 0 -250 750 0 750 0 0
-250 0 -250 250 0 250 0 0 -250 0 -250 250 0 250 0 0 -1000 0 -1000 -250 0
-250 0 0 -500 0 -500 -250 0 -250 0 0 250 0 250 -250 0 -250 0 0 -250 0 -250
-250 0 -250 0 0 -250 0 -250 -250 0 -250 0 0 250 0 250 -250 0 -250 0 0 250 0
250 -250 0 -250 0 0 250 0 250 -250 0 -250 0 0 -250 0 -250 -250 0 -250 0 0
-250 0 -250 -1250 0 -1250 0 0 -250 0 -250 -750 0 -750 0 0 250 0 250 750 0
750 0 0 250 0 250 250 0 250 0 0 500 0 500 500 0 500 0 0 -250 0 -250 750 0
750 0 0 500 0 500 -1250 0 -1250 0 0 250 0 250 -500 0 -500 0 0 -500 0 -500
250 0 250 0 0 -250 0 -250 -250 0 -250 0 0 250 0 250 -500 0 -500 0 0 -250 0
-250 250 0 250 0 0 -250 0 -250 -250 0 -250 0 0 250 0 250 -250 0 -250 0 0
500 0 500 -500 0 -500 0 0 -250 0 -250 -250 0 -250 0 0 250 0 250 250 0 250 0
0 1250 0 1250 -250 0 -250 0 0 -500 0 -500 -250 0 -250 0 0 -750 0 -750 -250
0 -250 0 0 -250 0 -250 250 0 250 0 0 -250 0 -250 250 0 250 0 0 -250 0 -250
750 0 750 0 0 -250 0 -250 -250 0 -250 0 0 -250 0 -250 250 0 250 0 0 -250 0
-250 -250 0 -250 0 0 -750 0 -750 -250 0 -250 0 0 -250 0 -250 -500 0 -500 0
0 -250 0 -250 -250 0 -250 0 0 250 0 250 -250 0 -250 0 0 250 0 250 250 0 250
0 0 750 0 750 500 0 500 0 0 -250 0 -250 -250 0 -250 0 0 -500 0 -500 500 0
500 0 0 750 0 750 250 0 250 0 0 250 0 250 -250 0 -250 0 0 250 0 250 -250 0
-250 0 0 250 0 250 -250 0 -250 0 0 -500 0 -500 -750 0 -750 0 0 250 0 250
-250 0 -250 0 0 500 0 500 -250 0 -250 0 0 250 0 250 -250 0 -250 0 0 -250 0
-250 -250 0 -250 0 0 250 0 250 -500 0 -500 0 0 250 0 250 -250 0 -250 0 0
250 0 250 -250 0 -250 0 0 250 0 250 500 0 500 0 0 250 0 250 -500 0 -500 0 0
250 0 250 250 0 250 0 0 250 0 250 -250 0 -250 0 0 250 0 250 -500 0 -500 0 0
-250 0 -250 -250 0 -250 0 0 250 0 250 250 0 250 0 0 250 0 250 -250 0 -250 0
0 250 0 250 -250 0 -250 0 0 250 0 250 750 0 750 0 0 250 0 250 -250 0 -250 0
0 250 0 250 -500 0 -500 0 0 -250 0 -250 -250 0 -250 0 0 250 0 250 250 0 250
0 0 500 0 500 250 0 250 0 0 250 0 250 250 0 250 0 0 -250 0 -250 250 0 250 0
0 -250 0 -250 750 0 750 0 0 250 0 250 250 0 250 0 0 250 0 250 250 0 250 0 0
-250 0 -250 -250 0 -250 0 0 -250 0 -250 250 0 250 0 0 -250 0 -250 750 0 750
0 0 250 0 250 250 0 250 0 0 250 0 250 -500 0 -500 0 0 -250 0 -250 -250 0
-250 0 0 250 0 250 250 0 250 0 0 250 0 250 250 0 250 0 0 250 0 250 250 0
250 0 0 750 0 750 500 0 500 0 0 500 0 500 -250 0 -250 0 0 -250 0 -250 -250
0 -250 0 0 250 0 250 -250 0 -250 0 0 250 0 250 -250 0 -250 0 0 -500 0 -500
-250 0 -250 0 0 500 0 500 -250 0 -250 0 0 -250 0 -250 -250 0 -250 0 0 250 0
250 250 0 250 0 0 250 0 250 -250 0 -250 0 0 500 0 500 250 0 250 0 0 250 0
250 500 0 500 0 0 -250 0 -250 250 0 250 0 0 -250 0 -250 250 0 250 0 0 250 0
250 500 0 500 0 0 -250 0 -250 -500 0 -500 0 0 -250 0 -250 750 0 750 0 0
-250 0 -250 250 0 250 0 0 250 0 250 250 0 250 0 0 250 0 250 -250 0 -250 0 0
250 0 250 500 0 500 0 0 -250 0 -250 500 0 500 0 0 -250 0 -250 -750 0 -750 0
0 -250 0 -250 250 0 250 0 0 -250 0 -250 250 0 250 0 0 250 0 250 250 0 250 0
0 -250 0 -250 250 0 250 0 0 750 0 750 250 0 250 0 0 250 0 250 250 0 250 0 0
-500 0 -500 250 0 250 0 0 500 0 500 250 0 250 0 0 250 0 250 250 0 250 0 0
-250 0 -250 250 0 250 0 0 500 0 500 250 0 250 0 0 -500z m1000 250 l0 -250
-250 0 -250 0 0 250 0 250 250 0 250 0 0 -250z m-12500 -4000 l0 -250 -250 0
-250 0 0 250 0 250 250 0 250 0 0 -250z m-1500 -500 l0 -250 -250 0 -250 0 0
250 0 250 250 0 250 0 0 -250z m1500 -500 l0 -250 -250 0 -250 0 0 -250 0
-250 250 0 250 0 0 -250 0 -250 -250 0 -250 0 0 250 0 250 -250 0 -250 0 0
500 0 500 500 0 500 0 0 -250z m14000 -500 l0 -250 -250 0 -250 0 0 250 0 250
250 0 250 0 0 -250z m2000 0 l0 -250 -250 0 -250 0 0 250 0 250 250 0 250 0 0
-250z m-17000 -6000 l0 -750 -500 0 -500 0 0 500 0 500 250 0 250 0 0 250 0
250 250 0 250 0 0 -750z m-1500 -1000 l0 -250 -250 0 -250 0 0 250 0 250 250
0 250 0 0 -250z m5000 -2500 l0 -750 250 0 250 0 0 -250 0 -250 -250 0 -250 0
0 250 0 250 -1000 0 -1000 0 0 250 0 250 250 0 250 0 0 250 0 250 500 0 500 0
0 250 0 250 250 0 250 0 0 -750z m13000 -500 l0 -250 500 0 500 0 0 -250 0
-250 -250 0 -250 0 0 -250 0 -250 250 0 250 0 0 -500 0 -500 -750 0 -750 0 0
500 0 500 250 0 250 0 0 500 0 500 -250 0 -250 0 0 250 0 250 250 0 250 0 0
-250z m-11500 -500 l0 -250 -250 0 -250 0 0 250 0 250 250 0 250 0 0 -250z
m4500 0 l0 -250 250 0 250 0 0 -250 0 -250 250 0 250 0 0 -250 0 -250 -250 0
-250 0 0 -250 0 -250 -500 0 -500 0 0 500 0 500 -250 0 -250 0 0 -250 0 -250
-250 0 -250 0 0 250 0 250 250 0 250 0 0 500 0 500 500 0 500 0 0 -250z m6000
-500 l0 -750 -750 0 -750 0 0 750 0 750 750 0 750 0 0 -750z m-1500 -1500 l0
-250 500 0 500 0 0 250 0 250 250 0 250 0 0 -500 0 -500 250 0 250 0 0 250 0
250 250 0 250 0 0 -500 0 -500 -500 0 -500 0 0 250 0 250 -750 0 -750 0 0 250
0 250 -250 0 -250 0 0 250 0 250 250 0 250 0 0 -250z m-3500 -750 l0 -500
-500 0 -500 0 0 250 0 250 250 0 250 0 0 250 0 250 250 0 250 0 0 -500z m7000
250 l0 -250 -250 0 -250 0 0 250 0 250 250 0 250 0 0 -250z"/>
<path d="M5500 18750 l0 -250 250 0 250 0 0 -250 0 -250 250 0 250 0 0 250 0
250 250 0 250 0 0 250 0 250 -750 0 -750 0 0 -250z"/>
<path d="M12500 18000 l0 -500 250 0 250 0 0 -250 0 -250 500 0 500 0 0 -250
0 -250 250 0 250 0 0 -250 0 -250 250 0 250 0 0 -250 0 -250 -250 0 -250 0 0
-250 0 -250 -250 0 -250 0 0 -500 0 -500 -250 0 -250 0 0 -250 0 -250 -250 0
-250 0 0 500 0 500 -750 0 -750 0 0 500 0 500 -500 0 -500 0 0 250 0 250 750
0 750 0 0 500 0 500 -500 0 -500 0 0 -250 0 -250 -250 0 -250 0 0 -250 0 -250
-250 0 -250 0 0 -500 0 -500 250 0 250 0 0 -250 0 -250 250 0 250 0 0 -250 0
-250 -500 0 -500 0 0 250 0 250 -250 0 -250 0 0 750 0 750 -250 0 -250 0 0
-250 0 -250 -250 0 -250 0 0 250 0 250 -250 0 -250 0 0 -500 0 -500 -250 0
-250 0 0 -500 0 -500 500 0 500 0 0 250 0 250 -250 0 -250 0 0 250 0 250 500
0 500 0 0 -750 0 -750 250 0 250 0 0 -250 0 -250 -250 0 -250 0 0 -250 0 -250
250 0 250 0 0 -250 0 -250 250 0 250 0 0 250 0 250 -250 0 -250 0 0 250 0 250
250 0 250 0 0 250 0 250 500 0 500 0 0 -500 0 -500 250 0 250 0 0 -250 0 -250
-500 0 -500 0 0 -250 0 -250 -250 0 -250 0 0 -250 0 -250 -500 0 -500 0 0
-250 0 -250 -250 0 -250 0 0 500 0 500 250 0 250 0 0 250 0 250 -500 0 -500 0
0 250 0 250 250 0 250 0 0 500 0 500 -250 0 -250 0 0 -250 0 -250 -250 0 -250
0 0 -250 0 -250 -1250 0 -1250 0 0 250 0 250 -750 0 -750 0 0 -250 0 -250 250
0 250 0 0 -250 0 -250 -500 0 -500 0 0 -500 0 -500 250 0 250 0 0 -250 0 -250
250 0 250 0 0 250 0 250 500 0 500 0 0 -250 0 -250 -250 0 -250 0 0 -750 0
-750 500 0 500 0 0 -250 0 -250 -500 0 -500 0 0 -500 0 -500 500 0 500 0 0
-250 0 -250 250 0 250 0 0 250 0 250 -250 0 -250 0 0 250 0 250 750 0 750 0 0
-250 0 -250 -250 0 -250 0 0 -250 0 -250 250 0 250 0 0 250 0 250 250 0 250 0
0 -250 0 -250 250 0 250 0 0 500 0 500 -250 0 -250 0 0 250 0 250 500 0 500 0
0 250 0 250 -250 0 -250 0 0 500 0 500 250 0 250 0 0 -250 0 -250 250 0 250 0
0 500 0 500 500 0 500 0 0 -250 0 -250 250 0 250 0 0 -250 0 -250 500 0 500 0
0 -250 0 -250 -500 0 -500 0 0 -500 0 -500 250 0 250 0 0 -250 0 -250 500 0
500 0 0 250 0 250 250 0 250 0 0 500 0 500 -250 0 -250 0 0 250 0 250 500 0
500 0 0 -500 0 -500 250 0 250 0 0 -250 0 -250 250 0 250 0 0 500 0 500 250 0
250 0 0 -250 0 -250 500 0 500 0 0 250 0 250 -250 0 -250 0 0 750 0 750 250 0
250 0 0 -250 0 -250 250 0 250 0 0 -250 0 -250 250 0 250 0 0 -500 0 -500
-250 0 -250 0 0 -250 0 -250 250 0 250 0 0 -750 0 -750 250 0 250 0 0 750 0
750 250 0 250 0 0 -250 0 -250 250 0 250 0 0 250 0 250 -250 0 -250 0 0 250 0
250 500 0 500 0 0 250 0 250 -500 0 -500 0 0 -250 0 -250 -250 0 -250 0 0 500
0 500 -250 0 -250 0 0 250 0 250 -250 0 -250 0 0 250 0 250 250 0 250 0 0 250
0 250 250 0 250 0 0 500 0 500 -250 0 -250 0 0 -500 0 -500 -250 0 -250 0 0
750 0 750 500 0 500 0 0 250 0 250 -250 0 -250 0 0 250 0 250 250 0 250 0 0
250 0 250 -250 0 -250 0 0 -250 0 -250 -500 0 -500 0 0 250 0 250 -500 0 -500
0 0 250 0 250 500 0 500 0 0 250 0 250 250 0 250 0 0 -250 0 -250 250 0 250 0
0 250 0 250 -250 0 -250 0 0 250 0 250 250 0 250 0 0 250 0 250 -500 0 -500 0
0 250 0 250 -500 0 -500 0 0 250 0 250 -250 0 -250 0 0 500 0 500 -250 0 -250
0 0 -250 0 -250 -250 0 -250 0 0 500 0 500 -250 0 -250 0 0 -500z m3000 -2750
l0 -250 -250 0 -250 0 0 250 0 250 250 0 250 0 0 -250z m-5500 -1500 l0 -250
-250 0 -250 0 0 250 0 250 250 0 250 0 0 -250z m1500 0 l0 -250 250 0 250 0 0
-250 0 -250 250 0 250 0 0 -250 0 -250 250 0 250 0 0 -250 0 -250 -250 0 -250
0 0 -250 0 -250 500 0 500 0 0 1000 0 1000 500 0 500 0 0 -250 0 -250 250 0
250 0 0 -250 0 -250 250 0 250 0 0 250 0 250 250 0 250 0 0 -250 0 -250 -250
0 -250 0 0 -500 0 -500 -250 0 -250 0 0 -250 0 -250 -500 0 -500 0 0 -250 0
-250 250 0 250 0 0 -500 0 -500 -250 0 -250 0 0 -250 0 -250 -250 0 -250 0 0
500 0 500 -500 0 -500 0 0 250 0 250 500 0 500 0 0 250 0 250 -750 0 -750 0 0
-250 0 -250 -250 0 -250 0 0 250 0 250 -250 0 -250 0 0 -250 0 -250 -250 0
-250 0 0 500 0 500 750 0 750 0 0 250 0 250 250 0 250 0 0 250 0 250 -500 0
-500 0 0 500 0 500 -250 0 -250 0 0 250 0 250 250 0 250 0 0 -250z m-7000
-2000 l0 -250 -250 0 -250 0 0 -250 0 -250 -250 0 -250 0 0 250 0 250 250 0
250 0 0 250 0 250 250 0 250 0 0 -250z m2500 0 l0 -250 250 0 250 0 0 -1000 0
-1000 -500 0 -500 0 0 -250 0 -250 500 0 500 0 0 -250 0 -250 -500 0 -500 0 0
250 0 250 -250 0 -250 0 0 500 0 500 -250 0 -250 0 0 250 0 250 250 0 250 0 0
-250 0 -250 500 0 500 0 0 250 0 250 -250 0 -250 0 0 500 0 500 -250 0 -250 0
0 -250 0 -250 -250 0 -250 0 0 250 0 250 250 0 250 0 0 250 0 250 500 0 500 0
0 -250z m5000 -3000 l0 -250 -250 0 -250 0 0 250 0 250 250 0 250 0 0 -250z
m5000 -500 l0 -250 -250 0 -250 0 0 250 0 250 250 0 250 0 0 -250z"/>
<path d="M14000 12750 l0 -250 250 0 250 0 0 -500 0 -500 250 0 250 0 0 500 0
500 -250 0 -250 0 0 250 0 250 -250 0 -250 0 0 -250z"/>
<path d="M13500 11250 l0 -250 250 0 250 0 0 250 0 250 -250 0 -250 0 0 -250z"/>
<path d="M7500 17750 l0 -250 250 0 250 0 0 250 0 250 -250 0 -250 0 0 -250z"/>
<path d="M8500 17750 l0 -250 250 0 250 0 0 250 0 250 -250 0 -250 0 0 -250z"/>
<path d="M9500 17250 l0 -750 250 0 250 0 0 750 0 750 -250 0 -250 0 0 -750z"/>
<path d="M12500 16000 l0 -500 -250 0 -250 0 0 -250 0 -250 250 0 250 0 0 250
0 250 250 0 250 0 0 -250 0 -250 250 0 250 0 0 250 0 250 -250 0 -250 0 0 250
0 250 250 0 250 0 0 250 0 250 -500 0 -500 0 0 -500z"/>
<path d="M18000 11250 l0 -250 250 0 250 0 0 250 0 250 -250 0 -250 0 0 -250z"/>
<path d="M19000 8250 l0 -250 250 0 250 0 0 250 0 250 -250 0 -250 0 0 -250z"/>
<path d="M18500 7250 l0 -250 250 0 250 0 0 250 0 250 -250 0 -250 0 0 -250z"/>
<path d="M7500 6000 l0 -500 500 0 500 0 0 250 0 250 250 0 250 0 0 250 0 250
-250 0 -250 0 0 -250 0 -250 -250 0 -250 0 0 250 0 250 -250 0 -250 0 0 -500z"/>
<path d="M14000 6250 l0 -250 250 0 250 0 0 250 0 250 -250 0 -250 0 0 -250z"/>
<path d="M18000 6250 l0 -250 250 0 250 0 0 250 0 250 -250 0 -250 0 0 -250z"/>
<path d="M8500 2750 l0 -250 250 0 250 0 0 250 0 250 -250 0 -250 0 0 -250z"/>
<path d="M19500 3250 l0 -250 250 0 250 0 0 250 0 250 -250 0 -250 0 0 -250z"/>
<path d="M17500 3750 l0 -250 250 0 250 0 0 250 0 250 -250 0 -250 0 0 -250z"/>
<path d="M7500 20750 l0 -250 250 0 250 0 0 250 0 250 -250 0 -250 0 0 -250z"/>
<path d="M11500 20500 l0 -500 250 0 250 0 0 500 0 500 -250 0 -250 0 0 -500z"/>
<path d="M12500 20750 l0 -250 250 0 250 0 0 250 0 250 -250 0 -250 0 0 -250z"/>
<path d="M17500 19250 l0 -1750 1750 0 1750 0 0 1750 0 1750 -1750 0 -1750 0
0 -1750z m3000 0 l0 -1250 -1250 0 -1250 0 0 1250 0 1250 1250 0 1250 0 0
-1250z"/>
<path d="M18500 19250 l0 -750 750 0 750 0 0 750 0 750 -750 0 -750 0 0 -750z"/>
<path d="M2000 6500 l0 -500 250 0 250 0 0 500 0 500 -250 0 -250 0 0 -500z"/>
<path d="M500 4750 l0 -250 250 0 250 0 0 250 0 250 -250 0 -250 0 0 -250z"/>
<path d="M500 2250 l0 -1750 1750 0 1750 0 0 1750 0 1750 -1750 0 -1750 0 0
-1750z m3000 0 l0 -1250 -1250 0 -1250 0 0 1250 0 1250 1250 0 1250 0 0 -1250z"/>
<path d="M1500 2250 l0 -750 750 0 750 0 0 750 0 750 -750 0 -750 0 0 -750z"/>
<path d="M5000 3000 l0 -500 -250 0 -250 0 0 -250 0 -250 250 0 250 0 0 -250
0 -250 250 0 250 0 0 250 0 250 250 0 250 0 0 -250 0 -250 250 0 250 0 0 -500
0 -500 250 0 250 0 0 500 0 500 250 0 250 0 0 250 0 250 -500 0 -500 0 0 500
0 500 -250 0 -250 0 0 250 0 250 -500 0 -500 0 0 -500z m1000 -250 l0 -250
-250 0 -250 0 0 -250 0 -250 -250 0 -250 0 0 250 0 250 250 0 250 0 0 250 0
250 250 0 250 0 0 -250z"/>
<path d="M5000 750 l0 -250 250 0 250 0 0 250 0 250 -250 0 -250 0 0 -250z"/>
</g>
</svg>
